<?xml version="1.0" encoding="UTF-8"?>
<svg xmlns="http://www.w3.org/2000/svg" xmlns:xlink="http://www.w3.org/1999/xlink" viewBox="0 0 40 40" width="40px" height="40px">
<g id="surface120837643">
<path style=" stroke:none;fill-rule:nonzero;fill:rgb(100%,100%,100%);fill-opacity:1;" d="M 36.164062 32.667969 C 35.152344 32.667969 34.183594 32.136719 33.578125 31.253906 L 28.328125 23.59375 L 23.078125 31.253906 C 22.46875 32.136719 21.503906 32.667969 20.492188 32.667969 L 18.058594 32.667969 L 26.300781 20.636719 L 18.097656 8.667969 L 20.53125 8.667969 C 21.546875 8.667969 22.511719 9.195312 23.117188 10.078125 L 28.328125 17.679688 L 33.539062 10.078125 C 34.144531 9.195312 35.109375 8.667969 36.125 8.667969 L 38.558594 8.667969 L 30.351562 20.636719 L 38.601562 32.667969 Z M 36.164062 32.667969 "/>
<path style=" stroke:none;fill-rule:nonzero;fill:rgb(40.000001%,47.450981%,56.078434%);fill-opacity:1;" d="M 37.292969 9.332031 L 29.546875 20.636719 L 37.332031 32 L 36.164062 32 C 35.367188 32 34.613281 31.585938 34.128906 30.878906 L 28.328125 22.414062 L 22.523438 30.878906 C 22.042969 31.585938 21.289062 32 20.488281 32 L 19.320312 32 L 27.109375 20.636719 L 19.363281 9.332031 L 20.53125 9.332031 C 21.332031 9.332031 22.085938 9.746094 22.566406 10.457031 L 28.328125 18.859375 L 34.089844 10.457031 C 34.570312 9.746094 35.324219 9.332031 36.121094 9.332031 L 37.292969 9.332031 M 39.824219 8 L 36.121094 8 C 34.890625 8 33.71875 8.636719 32.988281 9.703125 L 28.328125 16.5 L 23.667969 9.703125 C 22.9375 8.636719 21.765625 8 20.53125 8 L 16.832031 8 L 18.261719 10.085938 L 25.492188 20.636719 L 18.21875 31.246094 L 16.789062 33.332031 L 20.492188 33.332031 C 21.722656 33.332031 22.894531 32.699219 23.625 31.628906 L 28.328125 24.773438 L 33.03125 31.628906 C 33.757812 32.699219 34.929688 33.332031 36.164062 33.332031 L 39.863281 33.332031 L 38.433594 31.246094 L 31.160156 20.636719 L 38.390625 10.089844 Z M 39.824219 8 "/>
<path style=" stroke:none;fill-rule:nonzero;fill:rgb(100%,100%,100%);fill-opacity:1;" d="M 10.039062 32.648438 C 4.871094 32.648438 0.667969 28.300781 0.667969 22.957031 L 0.667969 18.410156 C 0.667969 13.066406 4.871094 8.71875 10.039062 8.71875 C 15.210938 8.71875 19.414062 13.066406 19.414062 18.410156 L 19.414062 22.574219 L 3.933594 22.574219 L 3.933594 22.957031 C 3.933594 26.5 6.671875 29.378906 10.039062 29.378906 C 11.894531 29.378906 13.691406 28.445312 14.851562 26.878906 C 15.496094 26.007812 16.441406 25.511719 17.449219 25.511719 L 19.132812 25.511719 L 18.800781 26.40625 C 17.425781 30.140625 13.90625 32.648438 10.039062 32.648438 Z M 16.113281 19.363281 L 16.144531 18.386719 C 16.144531 14.867188 13.40625 11.988281 10.039062 11.988281 C 6.671875 11.988281 3.933594 14.867188 3.933594 18.410156 L 3.902344 19.363281 Z M 16.113281 19.363281 "/>
<path style=" stroke:none;fill-rule:nonzero;fill:rgb(40.000001%,47.450981%,56.078434%);fill-opacity:1;" d="M 10.039062 9.386719 C 14.839844 9.386719 18.746094 13.433594 18.746094 18.40625 L 18.746094 21.90625 L 3.269531 21.90625 L 3.269531 22.957031 C 3.269531 26.867188 6.304688 30.046875 10.039062 30.046875 C 12.15625 30.046875 14.125 28.980469 15.386719 27.273438 C 15.878906 26.609375 16.621094 26.175781 17.445312 26.175781 L 18.175781 26.175781 C 18.175781 26.175781 18.175781 26.175781 18.175781 26.179688 C 16.894531 29.648438 13.625 31.984375 10.039062 31.984375 C 5.238281 31.984375 1.332031 27.933594 1.332031 22.957031 L 1.332031 18.410156 C 1.332031 13.433594 5.238281 9.386719 10.039062 9.386719 M 3.214844 20.027344 L 16.757812 20.027344 L 16.8125 18.410156 C 16.8125 14.5 13.773438 11.320312 10.039062 11.320312 C 6.304688 11.320312 3.269531 14.5 3.269531 18.410156 L 3.214844 20.027344 M 10.039062 8.050781 C 4.503906 8.050781 0 12.699219 0 18.410156 L 0 22.957031 C 0 28.667969 4.503906 33.316406 10.039062 33.316406 C 14.183594 33.316406 17.953125 30.632812 19.425781 26.640625 L 20.085938 24.847656 L 18.175781 24.84375 L 17.449219 24.84375 C 16.226562 24.84375 15.085938 25.441406 14.316406 26.484375 C 13.28125 27.878906 11.683594 28.714844 10.039062 28.714844 C 7.128906 28.714844 4.746094 26.285156 4.609375 23.242188 L 20.078125 23.242188 L 20.078125 18.410156 C 20.078125 12.699219 15.574219 8.050781 10.039062 8.050781 Z M 4.59375 18.695312 L 4.601562 18.453125 C 4.601562 15.234375 7.042969 12.652344 10.039062 12.652344 C 13.039062 12.652344 15.480469 15.234375 15.480469 18.40625 L 15.46875 18.691406 L 4.59375 18.691406 Z M 4.59375 18.695312 "/>
</g>
</svg>
